<?xml version="1.0" standalone="no"?>
<!DOCTYPE svg PUBLIC "-//W3C//DTD SVG 20010904//EN"
 "http://www.w3.org/TR/2001/REC-SVG-20010904/DTD/svg10.dtd">
<svg version="1.0" xmlns="http://www.w3.org/2000/svg"
 width="1842.000000pt" height="1842.000000pt" viewBox="0 0 1842.000000 1842.000000"
 preserveAspectRatio="xMidYMid meet">
<metadata>
Created by potrace 1.11, written by Peter Selinger 2001-2013
</metadata>
<g transform="translate(0.000000,1842.000000) scale(0.100000,-0.100000)"
fill="#000000" stroke="none">
<path d="M6600 15446 c12 -15 -11 -41 -25 -28 -4 4 -6 0 -3 -8 3 -8 0 -20 -6
-27 -32 -36 -37 -44 -31 -53 3 -6 1 -10 -5 -10 -6 0 -8 -5 -4 -12 4 -7 3 -8
-4 -4 -14 8 -35 -30 -28 -50 3 -9 1 -12 -4 -9 -6 3 -10 1 -10 -5 0 -6 -4 -8
-10 -5 -10 6 -13 -3 -13 -37 0 -10 -3 -15 -8 -13 -4 3 -10 1 -14 -5 -3 -5 -1
-10 6 -10 7 0 9 -3 5 -7 -4 -5 -13 -8 -19 -8 -7 0 -12 -7 -12 -15 0 -8 -8 -21
-18 -28 -14 -11 -15 -17 -6 -28 10 -12 9 -13 -5 -8 -9 4 -16 3 -15 -2 4 -23
-2 -35 -13 -28 -7 4 -10 4 -6 -1 4 -4 -1 -20 -11 -34 -32 -46 -35 -55 -20 -47
8 4 3 -2 -11 -14 -14 -12 -19 -19 -13 -15 8 4 11 1 7 -9 -3 -8 -11 -13 -18
-10 -9 3 -12 -5 -11 -25 2 -26 0 -29 -14 -18 -12 9 -13 9 -7 0 5 -9 1 -13 -10
-13 -16 0 -16 -1 2 -16 10 -8 13 -12 5 -8 -11 5 -13 3 -8 -9 3 -9 1 -19 -5
-23 -7 -5 -8 -2 -4 7 4 8 1 6 -7 -3 -8 -10 -17 -15 -21 -11 -4 4 -4 -1 0 -11
5 -14 4 -17 -5 -11 -10 6 -11 3 -2 -14 10 -18 9 -20 -6 -14 -16 6 -16 5 -4
-10 12 -15 12 -17 -1 -12 -8 3 -21 -2 -29 -11 -9 -12 -10 -15 -1 -10 17 10 15
-9 -3 -24 -8 -7 -12 -16 -9 -21 3 -5 -2 -9 -10 -9 -9 0 -13 -7 -11 -19 2 -13
-5 -26 -21 -36 -14 -9 -22 -20 -19 -25 4 -6 1 -10 -6 -10 -7 0 -9 -3 -6 -6 10
-11 -13 -45 -25 -38 -7 4 -8 3 -4 -4 9 -15 -18 -55 -30 -44 -4 4 -3 0 4 -9 10
-13 9 -19 -5 -30 -17 -13 -17 -13 -3 6 14 19 14 19 -3 6 -10 -8 -16 -20 -13
-28 3 -7 1 -13 -4 -13 -6 0 -9 -6 -7 -12 1 -7 -3 -12 -10 -11 -7 2 -10 -4 -7
-12 4 -8 0 -17 -9 -20 -8 -4 -13 -16 -12 -29 3 -19 -1 -23 -19 -19 -17 4 -18
3 -6 -6 12 -9 12 -11 -2 -16 -9 -4 -15 -15 -13 -25 2 -10 -4 -25 -13 -32 -15
-12 -16 -11 -3 5 8 11 9 17 2 17 -13 0 -26 -45 -16 -59 4 -7 -1 -8 -12 -4 -16
6 -16 5 -5 -10 12 -14 11 -16 -7 -12 -12 2 -19 0 -16 -6 4 -5 1 -9 -4 -9 -6 0
-11 -5 -11 -11 0 -5 6 -7 13 -3 6 4 4 -2 -6 -13 -9 -11 -14 -23 -10 -26 6 -7
-12 -11 -30 -8 -4 1 -3 -9 4 -21 6 -13 8 -20 4 -16 -4 4 -16 -2 -26 -14 -24
-27 -24 -34 -1 -17 9 7 5 0 -10 -15 -30 -29 -36 -42 -15 -30 6 3 0 -4 -14 -17
-14 -13 -24 -30 -21 -38 3 -8 0 -11 -6 -7 -7 4 -10 -1 -7 -13 2 -13 -3 -21
-18 -25 -12 -3 -18 -8 -14 -12 4 -4 1 -14 -6 -22 -10 -13 -9 -15 3 -8 11 6 11
4 -1 -6 -9 -7 -18 -17 -20 -23 -2 -5 -10 -8 -19 -7 -8 2 -12 1 -8 -4 4 -4 2
-14 -5 -23 -10 -14 -10 -14 5 -3 13 11 18 11 24 0 4 -7 4 -10 0 -6 -8 7 -23
-6 -61 -50 -19 -23 -19 -23 1 -16 17 6 16 4 -3 -15 -13 -12 -23 -27 -23 -32 0
-6 -7 -8 -16 -5 -14 5 -15 4 -4 -9 9 -11 9 -15 1 -15 -7 0 -9 -5 -5 -12 5 -8
2 -9 -10 -5 -9 4 -14 3 -11 -2 3 -5 1 -12 -5 -16 -5 -3 -10 -11 -10 -18 0 -6
7 -2 16 9 14 18 15 18 4 -4 -6 -13 -18 -26 -26 -29 -8 -3 -14 -9 -14 -15 0 -5
6 -6 13 -2 8 5 8 3 -2 -9 -7 -9 -18 -14 -24 -10 -5 3 -7 1 -3 -5 3 -6 1 -14
-5 -17 -5 -4 -8 -13 -5 -21 3 -8 0 -13 -7 -11 -7 1 -11 -4 -9 -10 1 -7 -8 -13
-20 -14 -13 0 -17 -3 -10 -6 17 -7 15 -27 -5 -50 -10 -10 -13 -12 -8 -3 9 13
8 13 -8 1 -14 -11 -15 -16 -5 -29 11 -13 10 -15 -4 -9 -12 4 -15 2 -11 -8 3
-8 -2 -17 -10 -21 -9 -3 -13 -12 -10 -20 4 -10 0 -12 -13 -7 -16 6 -17 5 -6
-9 11 -14 11 -18 -2 -25 -14 -8 -16 -12 -16 -34 0 -5 -4 -8 -9 -5 -5 3 -12 -1
-15 -10 -3 -8 -2 -12 4 -9 6 3 7 -1 4 -9 -3 -9 -10 -13 -15 -10 -5 3 -9 0 -9
-5 0 -22 -2 -26 -16 -34 -8 -4 -14 -15 -14 -23 0 -10 -5 -12 -12 -8 -9 5 -8 2
1 -9 12 -15 12 -17 -2 -11 -12 4 -15 1 -12 -15 2 -12 0 -19 -6 -16 -8 6 -13
-8 -10 -27 0 -4 -8 -12 -20 -18 -17 -10 -18 -14 -7 -28 7 -9 9 -14 4 -10 -11
9 -29 -10 -46 -49 -8 -17 -19 -29 -25 -25 -5 3 -3 -3 5 -13 9 -11 10 -16 3
-11 -8 4 -13 2 -13 -4 0 -6 -4 -9 -9 -6 -5 4 -8 -5 -7 -19 2 -13 0 -22 -4 -20
-4 2 -18 -7 -31 -22 -13 -14 -18 -23 -10 -18 9 5 12 3 9 -6 -3 -8 -11 -13 -18
-11 -11 3 -11 0 0 -13 11 -13 10 -15 -2 -10 -12 5 -15 -2 -14 -31 1 -35 3 -38
34 -40 22 -2 30 1 25 9 -5 9 -2 8 8 0 12 -10 18 -10 29 0 10 9 11 9 6 0 -4 -8
-1 -13 8 -13 9 0 16 6 16 13 0 8 3 9 8 1 9 -14 42 -14 42 0 0 7 3 7 8 1 11
-15 32 -17 32 -3 0 9 4 8 10 -2 8 -12 13 -13 29 -3 13 8 22 9 26 2 5 -7 11 -6
20 1 10 8 15 8 20 0 5 -8 11 -7 23 2 12 10 14 10 8 1 -9 -16 16 -17 31 -2 8 8
13 8 18 -1 5 -8 10 -8 20 0 10 8 15 8 20 0 5 -8 10 -8 20 0 10 8 15 8 20 0 5
-8 11 -7 23 2 12 10 14 10 8 1 -4 -8 -2 -13 8 -13 8 0 18 5 21 10 5 8 11 8 20
0 10 -8 15 -8 20 0 5 8 11 8 19 1 9 -7 17 -7 26 2 8 7 10 7 7 1 -4 -7 3 -11
18 -11 16 0 22 4 18 11 -4 6 0 5 9 -2 12 -9 18 -10 23 -2 5 8 10 8 20 0 10 -8
15 -8 20 0 5 8 11 8 19 1 9 -7 17 -7 26 2 9 9 11 9 6 0 -4 -8 1 -11 14 -10 11
1 20 6 20 12 0 6 3 7 8 0 11 -15 42 -18 42 -3 0 8 3 9 8 3 11 -15 32 -17 47
-5 10 8 15 8 20 0 5 -8 11 -7 23 2 12 10 14 10 8 0 -8 -14 19 -12 43 2 9 6 12
5 7 -2 -4 -7 1 -10 14 -9 11 1 20 6 20 12 0 6 3 7 8 0 11 -15 42 -18 42 -3 0
8 3 9 8 3 11 -15 32 -17 47 -5 10 8 15 8 20 0 5 -8 11 -7 23 2 12 10 14 10 8
0 -8 -14 19 -12 43 2 9 6 12 5 7 -2 -4 -7 1 -10 14 -9 11 1 20 6 20 12 0 6 3
7 8 0 11 -15 42 -18 42 -3 0 8 3 9 8 3 11 -15 32 -17 47 -5 10 8 15 8 20 0 5
-8 11 -7 23 2 12 10 14 10 8 0 -8 -14 19 -12 43 2 10 6 12 5 7 -3 -10 -15 25
-11 36 4 5 7 8 6 8 0 0 -15 40 -16 40 -2 0 8 3 8 8 2 11 -15 32 -17 47 -5 10
8 15 8 20 0 5 -8 11 -7 23 2 12 10 14 10 8 0 -8 -14 19 -12 43 2 9 6 12 5 7
-2 -4 -7 1 -10 14 -9 11 1 20 6 20 12 0 6 3 7 8 0 11 -16 34 -17 43 -3 5 7 9
8 9 3 0 -15 40 -16 40 -2 0 8 3 8 9 -1 4 -8 12 -14 16 -14 4 0 12 6 16 14 7
10 9 10 9 0 0 -15 31 -12 42 3 5 6 8 6 8 -1 0 -13 58 -13 77 -1 7 4 15 3 18
-3 5 -8 12 -7 23 2 12 10 14 10 8 1 -9 -16 16 -17 31 -2 8 8 13 8 18 -1 5 -8
10 -8 20 0 10 8 15 8 20 0 5 -8 11 -7 23 2 12 10 14 10 8 1 -4 -8 -2 -13 8
-13 8 0 18 5 21 10 5 8 11 8 20 0 10 -8 15 -8 20 0 5 8 11 7 22 -1 12 -10 16
-10 24 2 7 12 9 12 9 0 0 -11 3 -12 11 -4 19 19 37 -9 34 -53 -1 -21 2 -44 7
-51 6 -7 5 -14 -2 -18 -14 -9 -13 -28 3 -19 9 5 9 4 0 -6 -9 -9 -9 -19 -2 -33
8 -15 8 -18 -1 -12 -9 5 -10 1 -5 -14 4 -14 2 -21 -7 -21 -8 0 -9 -3 -3 -8 14
-9 17 -59 5 -67 -6 -4 -7 -12 -3 -18 13 -21 13 -88 0 -81 -7 3 -3 -2 7 -10 11
-9 15 -16 10 -16 -6 0 -9 -29 -8 -70 1 -49 -1 -68 -10 -64 -6 3 -2 -2 8 -10
11 -9 16 -16 10 -16 -5 0 -9 -40 -8 -92 1 -51 -3 -98 -8 -105 -5 -7 -5 -14 1
-18 6 -3 9 -28 7 -55 -2 -31 0 -50 7 -50 6 0 2 -7 -9 -16 -10 -8 -14 -13 -8
-10 14 7 16 -74 2 -91 -5 -7 -5 -14 1 -18 6 -3 9 -28 7 -55 -2 -31 0 -50 7
-50 6 0 2 -7 -9 -16 -10 -8 -14 -13 -7 -10 8 5 11 -3 9 -21 -1 -16 2 -36 7
-47 6 -12 5 -16 -1 -12 -6 3 -8 -17 -6 -54 2 -44 0 -59 -9 -55 -7 4 -3 -1 7
-9 11 -9 15 -16 10 -16 -6 0 -9 -29 -8 -70 1 -49 -1 -68 -10 -64 -6 3 -2 -2 8
-10 11 -9 16 -16 10 -16 -5 0 -9 -40 -8 -92 1 -51 -3 -98 -8 -105 -5 -7 -5
-14 1 -18 6 -3 9 -28 7 -55 -2 -31 0 -50 7 -50 6 0 2 -7 -9 -16 -10 -8 -14
-13 -8 -10 14 7 16 -74 2 -91 -5 -7 -5 -14 1 -18 6 -3 9 -28 7 -55 -2 -31 0
-50 7 -50 6 0 2 -7 -9 -16 -10 -8 -14 -13 -8 -10 8 4 11 -12 10 -54 -1 -34 3
-60 8 -60 5 0 3 -6 -5 -12 -8 -7 -12 -12 -10 -11 2 2 9 -1 15 -6 18 -14 69
-23 61 -11 -4 7 2 7 19 0 20 -7 26 -6 29 8 4 14 5 14 6 1 1 -11 9 -14 31 -11
17 2 37 -1 45 -8 13 -11 14 -10 9 3 -4 12 -1 15 16 12 40 -8 116 -8 128 -1 7
4 12 2 12 -3 0 -6 5 -11 11 -11 5 0 7 5 3 11 -4 7 1 7 16 -1 20 -11 22 -10 17
4 -4 10 -3 15 3 11 6 -3 10 -14 10 -23 0 -14 2 -14 9 -3 6 9 18 11 36 7 17 -4
24 -3 20 3 -3 6 0 9 7 6 33 -11 89 -14 83 -5 -3 5 0 7 9 4 23 -9 166 -10 166
-1 0 4 8 4 18 0 26 -12 67 -9 64 6 -1 7 2 10 8 6 6 -3 8 -10 5 -15 -3 -5 0
-12 6 -16 8 -5 9 -3 4 6 -6 10 2 12 38 8 31 -4 44 -2 40 5 -3 5 -1 7 5 3 5 -3
12 -3 15 1 2 5 2 2 1 -4 -2 -7 1 -13 6 -13 6 0 10 6 10 13 0 7 3 8 8 2 11 -15
58 -11 54 5 -3 11 0 11 13 0 17 -14 242 -19 264 -6 6 4 11 2 11 -3 0 -6 5 -11
11 -11 6 0 7 6 2 13 -4 6 5 4 19 -5 15 -10 29 -14 32 -9 3 5 17 11 31 13 13 3
22 1 19 -3 -7 -12 3 -11 28 2 11 6 18 7 15 2 -3 -4 10 -9 29 -9 18 -1 31 2 29
7 -6 9 18 5 49 -7 13 -5 17 -4 12 4 -3 6 -1 14 5 18 8 4 9 3 5 -4 -8 -14 -10
-13 64 -15 30 -1 58 2 62 8 4 6 8 1 9 -10 l0 -20 9 20 c5 11 9 14 9 6 1 -11 4
-11 18 0 9 8 14 9 11 4 -4 -7 9 -11 38 -11 24 1 44 5 44 10 0 5 9 1 20 -9 18
-17 20 -17 14 -2 -5 14 -2 16 17 8 18 -6 27 -4 36 8 12 14 12 14 6 -4 -3 -11
-3 -17 2 -13 4 4 14 3 21 -3 10 -9 15 -7 20 5 3 9 10 13 16 10 15 -9 88 -10
88 -1 0 5 5 5 12 1 15 -9 132 -9 147 0 6 4 11 2 11 -3 0 -6 5 -11 11 -11 5 0
7 5 3 11 -4 7 1 7 16 -1 20 -11 22 -10 17 4 -4 10 -3 15 3 11 6 -3 10 -14 10
-23 0 -14 2 -14 9 -3 6 9 18 11 36 7 17 -4 24 -3 20 3 -3 6 0 9 7 6 33 -11 89
-14 83 -5 -3 5 0 7 9 4 23 -9 166 -10 166 -1 0 4 8 4 18 0 26 -12 67 -9 64 6
-1 7 2 10 8 6 6 -3 8 -10 5 -15 -3 -5 0 -12 6 -16 8 -5 9 -3 4 6 -6 10 2 12
38 8 31 -4 44 -2 40 5 -3 5 -1 7 5 3 5 -3 12 -3 15 1 2 5 2 2 1 -4 -2 -7 1
-13 6 -13 6 0 10 6 10 13 0 7 3 8 8 2 11 -15 58 -11 54 5 -3 11 0 11 13 0 17
-14 242 -19 264 -6 6 4 11 2 11 -3 0 -6 5 -11 11 -11 6 0 7 6 2 13 -4 6 5 4
19 -5 15 -10 29 -14 32 -9 3 5 17 11 31 13 13 3 22 1 19 -3 -7 -12 3 -11 28 2
11 6 18 7 15 2 -3 -4 10 -9 29 -9 18 -1 31 2 29 7 -6 9 18 5 49 -7 13 -5 17
-4 12 4 -3 6 -1 14 5 18 8 4 9 3 5 -4 -4 -7 -4 -12 1 -13 4 0 16 -2 26 -4 9
-2 17 2 17 8 0 7 5 5 10 -3 8 -12 10 -12 10 -1 0 11 3 11 15 1 12 -10 15 -9
15 5 0 10 5 15 13 12 17 -7 13 139 -5 162 -7 9 -2 7 11 -4 l24 -20 -18 34
c-16 32 -16 34 1 27 17 -6 17 -6 -1 14 -14 15 -15 20 -4 20 10 1 8 6 -6 17
-20 15 -20 15 3 10 18 -4 21 -2 13 7 -6 7 -10 30 -8 52 1 21 -2 45 -7 53 -6 9
-5 12 1 8 5 -3 8 13 6 41 -2 25 -9 50 -16 54 -7 4 -8 8 -1 8 5 0 16 -6 23 -12
8 -8 6 1 -4 21 -16 32 -16 34 1 27 17 -6 17 -6 -1 14 -14 15 -15 20 -4 20 10
1 8 6 -6 17 -20 15 -20 15 3 10 18 -4 21 -3 12 8 -6 7 -8 38 -6 76 4 43 2 59
-4 49 -6 -9 -10 -10 -10 -3 0 6 5 15 10 18 6 3 10 14 10 23 0 13 -2 14 -9 4
-7 -11 -9 -11 -14 2 -4 9 -1 15 5 13 7 -1 13 7 15 18 3 16 2 17 -6 5 -6 -8
-11 -10 -11 -4 0 5 5 15 11 21 15 15 3 47 -12 37 -8 -5 -9 -3 -5 5 5 7 14 10
22 7 8 -3 11 0 7 9 -3 8 -9 12 -14 9 -5 -3 -5 6 1 20 5 15 6 28 0 31 -6 3 -6
15 0 29 5 15 5 27 -3 35 -8 8 -8 11 2 11 11 0 11 3 0 17 -10 11 -10 14 -1 9 6
-4 12 -3 12 3 0 5 -8 15 -17 20 -16 9 -16 10 -2 11 20 0 33 27 17 36 -6 4 -8
21 -5 40 5 28 3 32 -11 26 -15 -5 -15 -3 1 13 15 14 16 20 5 26 -10 7 -10 9 0
9 6 0 12 8 12 18 0 13 -2 14 -9 4 -7 -11 -9 -11 -14 2 -4 9 -1 15 5 13 7 -1
13 7 15 18 3 16 2 17 -6 5 -6 -8 -11 -10 -11 -4 0 5 6 16 12 22 10 10 10 17 0
33 -8 12 -10 19 -5 16 5 -3 8 15 6 41 -2 25 -9 50 -16 54 -7 4 -8 8 -1 8 5 0
16 -6 23 -12 8 -8 6 1 -4 21 -16 32 -16 34 1 27 17 -6 17 -6 -1 14 -14 15 -15
20 -4 20 10 1 8 6 -6 17 -20 15 -20 15 3 10 18 -4 21 -2 13 7 -6 7 -10 30 -8
52 1 21 -2 45 -7 53 -6 9 -5 12 1 8 5 -3 8 13 6 41 -2 25 -9 50 -16 54 -7 4
-8 8 -1 8 5 0 16 -6 23 -12 8 -8 6 1 -4 21 -16 32 -16 34 1 27 17 -6 17 -6 -1
14 -14 15 -15 20 -4 20 10 1 8 6 -6 17 -20 15 -20 15 3 10 18 -4 21 -3 12 8
-6 7 -9 33 -6 58 3 39 2 45 -13 39 -13 -5 -13 -3 2 13 15 14 16 20 5 26 -11 7
-10 9 1 9 11 0 9 5 -5 21 -13 14 -14 19 -4 17 7 -2 15 6 17 17 3 16 2 17 -6 5
-7 -9 -11 -10 -11 -3 0 6 5 15 10 18 6 3 10 11 10 16 0 6 -5 7 -11 3 -8 -5 -8
-1 0 13 7 14 7 23 -1 31 -9 9 -9 12 2 12 9 0 8 6 -6 22 -15 19 -16 20 -1 9 19
-15 24 -2 5 17 -9 9 -9 12 1 12 11 0 11 3 1 15 -10 12 -9 16 6 22 11 3 22 11
26 17 5 8 8 7 8 -1 0 -12 17 -12 37 0 6 4 15 3 18 -3 5 -8 11 -8 20 0 8 7 15
7 19 1 7 -10 24 -10 43 2 6 4 15 3 18 -3 5 -8 12 -7 23 2 12 10 14 10 8 1 -4
-8 -2 -13 8 -13 8 0 18 5 21 10 5 8 11 8 20 0 10 -8 15 -8 20 0 5 8 11 8 19 1
9 -7 17 -7 26 2 8 7 10 7 7 1 -4 -7 3 -11 18 -11 16 0 22 4 18 11 -4 6 0 5 9
-2 12 -9 18 -10 23 -2 5 8 10 8 20 0 10 -8 15 -8 20 0 5 8 11 7 22 -1 12 -10
16 -10 24 2 6 10 9 10 9 2 0 -15 21 -13 32 2 5 6 8 6 8 -2 0 -14 40 -13 40 2
0 5 4 5 8 -2 8 -12 36 -12 48 0 4 4 14 2 21 -5 11 -9 17 -9 24 3 5 8 9 9 9 4
0 -15 40 -16 40 -2 0 8 3 8 9 -1 4 -8 12 -14 16 -14 4 0 12 6 16 14 6 8 9 9 9
1 0 -12 17 -12 37 0 6 4 14 3 18 -2 7 -13 45 -10 45 4 0 5 4 4 9 -4 7 -12 13
-12 24 -3 7 7 17 9 21 5 3 -4 16 -8 27 -10 14 -2 18 1 13 9 -6 10 -5 10 7 1
12 -10 18 -10 29 0 10 9 11 9 6 -1 -8 -13 19 -13 41 1 6 4 14 3 17 -2 3 -4 17
-8 31 -8 15 0 22 4 18 11 -4 6 0 5 9 -2 12 -9 18 -10 23 -2 5 8 11 8 21 -1 10
-8 18 -8 27 0 10 8 17 7 26 -2 9 -9 14 -9 21 3 6 9 10 10 10 3 0 -13 18 -12
39 1 9 6 12 5 8 -1 -4 -6 8 -10 28 -10 22 0 32 4 28 11 -4 6 0 5 9 -2 11 -9
18 -10 23 -2 3 6 12 7 18 3 20 -12 37 -12 37 0 0 8 3 8 8 2 11 -15 46 -19 36
-4 -5 8 -3 9 7 3 23 -14 51 -16 43 -2 -5 7 -3 8 7 2 22 -13 69 -14 69 -1 0 8
3 8 8 2 11 -16 46 -19 36 -3 -6 10 -4 10 7 2 16 -12 29 -12 48 0 10 6 12 5 7
-2 -8 -13 20 -12 41 1 6 4 15 3 18 -3 5 -8 12 -7 23 2 12 10 14 10 8 1 -4 -8
-2 -13 8 -13 8 0 18 5 21 10 5 8 11 8 20 0 10 -8 15 -8 20 0 5 8 11 8 19 1 9
-7 17 -7 26 2 8 7 10 7 7 1 -4 -7 3 -11 18 -11 16 0 22 4 18 11 -4 6 0 5 9 -2
12 -9 18 -10 23 -2 5 8 10 8 20 0 10 -8 15 -8 20 0 5 8 11 8 19 1 9 -7 17 -7
26 2 8 7 10 7 7 1 -4 -7 3 -11 18 -11 16 0 22 4 18 11 -4 6 0 5 9 -2 12 -9 18
-10 23 -2 5 8 11 8 19 1 9 -7 17 -7 26 2 10 9 11 9 6 0 -9 -16 20 -18 29 -3 5
8 11 8 19 1 9 -7 16 -7 23 0 8 8 13 8 17 0 4 -6 12 -11 17 -11 6 0 7 6 3 13
-6 9 -5 9 8 0 8 -7 18 -10 21 -6 4 3 7 635 7 1402 l0 1396 -53 1 c-28 1 -55
-4 -59 -9 -8 -13 -40 -19 -32 -6 3 5 10 7 15 4 5 -4 9 -2 9 2 0 13 -383 12
-392 -1 -8 -12 -40 -17 -32 -5 3 5 10 7 15 4 5 -4 9 -2 9 3 0 14 -64 10 -75
-4 -7 -10 -14 -11 -25 -3 -13 9 -12 10 3 5 9 -3 17 -2 17 2 0 12 -384 10 -392
-2 -8 -12 -40 -17 -32 -5 3 5 10 7 15 4 5 -4 9 -2 9 3 0 12 -64 11 -72 -1 -8
-13 -40 -19 -32 -6 3 5 10 7 15 4 5 -4 9 -2 9 2 0 13 -383 12 -392 -1 -8 -12
-40 -17 -32 -5 3 5 10 7 15 4 5 -4 9 -2 9 3 0 14 -64 10 -75 -4 -7 -10 -14
-11 -25 -3 -13 9 -12 10 3 5 9 -3 17 -2 17 2 0 12 -1344 10 -1352 -2 -8 -12
-40 -17 -32 -5 3 5 10 7 15 4 5 -4 9 -2 9 3 0 12 -64 11 -72 -1 -8 -13 -40
-19 -32 -6 3 5 10 7 15 4 5 -4 9 -2 9 2 0 13 -383 12 -392 -1 -8 -12 -40 -17
-32 -5 3 5 10 7 15 4 5 -4 9 -2 9 3 0 14 -64 10 -75 -4 -7 -10 -14 -11 -25 -3
-13 9 -12 10 3 5 9 -3 17 -2 17 2 0 12 -1344 10 -1352 -2 -8 -12 -40 -17 -32
-5 3 5 10 7 15 4 5 -4 9 -2 9 3 0 12 -64 11 -72 -1 -8 -13 -40 -19 -32 -6 3 5
10 7 15 4 5 -4 9 -2 9 2 0 13 -383 12 -392 -1 -8 -12 -40 -17 -32 -5 3 5 10 7
15 4 5 -4 9 -2 9 3 0 14 -64 10 -75 -4 -7 -10 -14 -11 -25 -3 -13 9 -12 10 3
5 9 -3 17 -2 17 2 0 12 -384 10 -392 -2 -8 -12 -40 -17 -32 -5 3 5 10 7 15 4
5 -4 9 -2 9 3 0 12 -64 11 -72 -1 -8 -13 -40 -19 -32 -6 3 5 10 7 15 4 5 -4 9
-2 9 2 0 13 -383 12 -392 -1 -8 -12 -40 -17 -32 -5 3 5 10 7 15 4 5 -4 9 -2 9
3 0 12 -64 11 -72 -1 -8 -13 -40 -19 -32 -6 3 5 10 7 15 4 5 -4 9 -2 9 3 0 12
-64 11 -72 -1 -8 -13 -40 -19 -32 -6 3 5 10 7 15 4 5 -4 9 -2 9 3 0 12 -64 11
-72 -1 -8 -13 -40 -19 -32 -6 3 5 10 7 15 4 5 -4 9 -2 9 3 0 16 -183 10 -196
-6 -9 -12 -13 -12 -26 2 -19 18 -53 22 -42 4 5 -7 3 -8 -7 -2 -24 14 -42 14
-29 0z m150 -6 c0 -5 -2 -10 -4 -10 -3 0 -8 5 -11 10 -3 6 -1 10 4 10 6 0 11
-4 11 -10z m80 0 c0 -5 -5 -10 -11 -10 -5 0 -7 5 -4 10 3 6 8 10 11 10 2 0 4
-4 4 -10z m415 0 c-28 -12 -37 -12 -30 0 3 6 16 10 28 9 21 0 21 -1 2 -9z m80
-8 c-3 -3 -11 0 -18 7 -9 10 -8 11 6 5 10 -3 15 -9 12 -12z m65 8 c0 -5 -2
-10 -4 -10 -3 0 -8 5 -11 10 -3 6 -1 10 4 10 6 0 11 -4 11 -10z m80 0 c0 -5
-5 -10 -11 -10 -5 0 -7 5 -4 10 3 6 8 10 11 10 2 0 4 -4 4 -10z m255 -8 c-3
-3 -11 0 -18 7 -9 10 -8 11 6 5 10 -3 15 -9 12 -12z m65 8 c0 -5 -2 -10 -4
-10 -3 0 -8 5 -11 10 -3 6 -1 10 4 10 6 0 11 -4 11 -10z m95 -8 c-3 -3 -11 0
-18 7 -9 10 -8 11 6 5 10 -3 15 -9 12 -12z m65 8 c0 -5 -2 -10 -4 -10 -3 0 -8
5 -11 10 -3 6 -1 10 4 10 6 0 11 -4 11 -10z m255 0 c-28 -12 -37 -12 -30 0 3
6 16 10 28 9 21 0 21 -1 2 -9z m80 -8 c-3 -3 -11 0 -18 7 -9 10 -8 11 6 5 10
-3 15 -9 12 -12z m65 8 c0 -5 -2 -10 -4 -10 -3 0 -8 5 -11 10 -3 6 -1 10 4 10
6 0 11 -4 11 -10z m80 0 c0 -5 -5 -10 -11 -10 -5 0 -7 5 -4 10 3 6 8 10 11 10
2 0 4 -4 4 -10z m255 -8 c-3 -3 -11 0 -18 7 -9 10 -8 11 6 5 10 -3 15 -9 12
-12z m65 8 c0 -5 -2 -10 -4 -10 -3 0 -8 5 -11 10 -3 6 -1 10 4 10 6 0 11 -4
11 -10z m95 -8 c-3 -3 -11 0 -18 7 -9 10 -8 11 6 5 10 -3 15 -9 12 -12z m65 8
c0 -5 -2 -10 -4 -10 -3 0 -8 5 -11 10 -3 6 -1 10 4 10 6 0 11 -4 11 -10z m95
0 c-28 -12 -37 -12 -30 0 3 6 16 10 28 9 21 0 21 -1 2 -9z m80 -8 c-3 -3 -11
0 -18 7 -9 10 -8 11 6 5 10 -3 15 -9 12 -12z m65 8 c0 -5 -2 -10 -4 -10 -3 0
-8 5 -11 10 -3 6 -1 10 4 10 6 0 11 -4 11 -10z m80 0 c0 -5 -5 -10 -11 -10 -5
0 -7 5 -4 10 3 6 8 10 11 10 2 0 4 -4 4 -10z m95 0 c-28 -12 -37 -12 -30 0 3
6 16 10 28 9 21 0 21 -1 2 -9z m80 -8 c-3 -3 -11 0 -18 7 -9 10 -8 11 6 5 10
-3 15 -9 12 -12z m65 8 c0 -5 -2 -10 -4 -10 -3 0 -8 5 -11 10 -3 6 -1 10 4 10
6 0 11 -4 11 -10z m80 0 c0 -5 -5 -10 -11 -10 -5 0 -7 5 -4 10 3 6 8 10 11 10
2 0 4 -4 4 -10z m95 -8 c-3 -3 -11 0 -18 7 -9 10 -8 11 6 5 10 -3 15 -9 12
-12z m65 8 c0 -5 -2 -10 -4 -10 -3 0 -8 5 -11 10 -3 6 -1 10 4 10 6 0 11 -4
11 -10z m95 -8 c-3 -3 -11 0 -18 7 -9 10 -8 11 6 5 10 -3 15 -9 12 -12z m65 8
c0 -5 -2 -10 -4 -10 -3 0 -8 5 -11 10 -3 6 -1 10 4 10 6 0 11 -4 11 -10z m255
0 c-28 -12 -37 -12 -30 0 3 6 16 10 28 9 21 0 21 -1 2 -9z m80 -8 c-3 -3 -11
0 -18 7 -9 10 -8 11 6 5 10 -3 15 -9 12 -12z m65 8 c0 -5 -2 -10 -4 -10 -3 0
-8 5 -11 10 -3 6 -1 10 4 10 6 0 11 -4 11 -10z m80 0 c0 -5 -5 -10 -11 -10 -5
0 -7 5 -4 10 3 6 8 10 11 10 2 0 4 -4 4 -10z m255 -8 c-3 -3 -11 0 -18 7 -9
10 -8 11 6 5 10 -3 15 -9 12 -12z m65 8 c0 -5 -2 -10 -4 -10 -3 0 -8 5 -11 10
-3 6 -1 10 4 10 6 0 11 -4 11 -10z m95 -8 c-3 -3 -11 0 -18 7 -9 10 -8 11 6 5
10 -3 15 -9 12 -12z m65 8 c0 -5 -2 -10 -4 -10 -3 0 -8 5 -11 10 -3 6 -1 10 4
10 6 0 11 -4 11 -10z m95 0 c-28 -12 -37 -12 -30 0 3 6 16 10 28 9 21 0 21 -1
2 -9z m80 -8 c-3 -3 -11 0 -18 7 -9 10 -8 11 6 5 10 -3 15 -9 12 -12z m65 8
c0 -5 -2 -10 -4 -10 -3 0 -8 5 -11 10 -3 6 -1 10 4 10 6 0 11 -4 11 -10z m80
0 c0 -5 -5 -10 -11 -10 -5 0 -7 5 -4 10 3 6 8 10 11 10 2 0 4 -4 4 -10z m95 0
c-28 -12 -37 -12 -30 0 3 6 16 10 28 9 21 0 21 -1 2 -9z m80 -8 c-3 -3 -11 0
-18 7 -9 10 -8 11 6 5 10 -3 15 -9 12 -12z m65 8 c0 -5 -2 -10 -4 -10 -3 0 -8
5 -11 10 -3 6 -1 10 4 10 6 0 11 -4 11 -10z m80 0 c0 -5 -5 -10 -11 -10 -5 0
-7 5 -4 10 3 6 8 10 11 10 2 0 4 -4 4 -10z m95 -8 c-3 -3 -11 0 -18 7 -9 10
-8 11 6 5 10 -3 15 -9 12 -12z m65 8 c0 -5 -2 -10 -4 -10 -3 0 -8 5 -11 10 -3
6 -1 10 4 10 6 0 11 -4 11 -10z m95 -8 c-3 -3 -11 0 -18 7 -9 10 -8 11 6 5 10
-3 15 -9 12 -12z m65 8 c0 -5 -2 -10 -4 -10 -3 0 -8 5 -11 10 -3 6 -1 10 4 10
6 0 11 -4 11 -10z m255 0 c-28 -12 -37 -12 -30 0 3 6 16 10 28 9 21 0 21 -1 2
-9z m80 -8 c-3 -3 -11 0 -18 7 -9 10 -8 11 6 5 10 -3 15 -9 12 -12z m65 8 c0
-5 -2 -10 -4 -10 -3 0 -8 5 -11 10 -3 6 -1 10 4 10 6 0 11 -4 11 -10z m80 0
c0 -5 -5 -10 -11 -10 -5 0 -7 5 -4 10 3 6 8 10 11 10 2 0 4 -4 4 -10z m255 -8
c-3 -3 -11 0 -18 7 -9 10 -8 11 6 5 10 -3 15 -9 12 -12z m65 8 c0 -5 -2 -10
-4 -10 -3 0 -8 5 -11 10 -3 6 -1 10 4 10 6 0 11 -4 11 -10z m95 -8 c-3 -3 -11
0 -18 7 -9 10 -8 11 6 5 10 -3 15 -9 12 -12z m65 8 c0 -5 -2 -10 -4 -10 -3 0
-8 5 -11 10 -3 6 -1 10 4 10 6 0 11 -4 11 -10z m255 0 c-28 -12 -37 -12 -30 0
3 6 16 10 28 9 21 0 21 -1 2 -9z m80 -8 c-3 -3 -11 0 -18 7 -9 10 -8 11 6 5
10 -3 15 -9 12 -12z m65 8 c0 -5 -2 -10 -4 -10 -3 0 -8 5 -11 10 -3 6 -1 10 4
10 6 0 11 -4 11 -10z m80 0 c0 -5 -5 -10 -11 -10 -5 0 -7 5 -4 10 3 6 8 10 11
10 2 0 4 -4 4 -10z m144 2 c3 -5 -1 -9 -9 -9 -8 0 -12 4 -9 9 3 4 7 8 9 8 2 0
6 -4 9 -8z m31 -2 c3 -5 1 -10 -4 -10 -6 0 -11 5 -11 10 0 6 2 10 4 10 3 0 8
-4 11 -10z m-8335 -2654 c0 -2 -7 -7 -16 -10 -8 -3 -12 -2 -9 4 6 10 25 14 25
6z m3718 -2421 c-3 -3 -9 2 -12 12 -6 14 -5 15 5 6 7 -7 10 -15 7 -18z m342
21 c0 -3 -4 -8 -10 -11 -5 -3 -10 -1 -10 4 0 6 5 11 10 11 6 0 10 -2 10 -4z
m277 -11 c0 -8 -4 -12 -9 -9 -5 3 -6 10 -3 15 9 13 12 11 12 -6z m1301 -10
c-3 -3 -9 2 -12 12 -6 14 -5 15 5 6 7 -7 10 -15 7 -18z"/>
<path d="M6685 15450 c3 -5 8 -10 11 -10 2 0 4 5 4 10 0 6 -5 10 -11 10 -5 0
-7 -4 -4 -10z"/>
<path d="M7583 8024 c5 -8 -15 -11 -71 -10 -58 1 -81 -3 -92 -14 -13 -14 -14
-14 -5 0 9 13 8 13 -7 1 -10 -7 -14 -18 -10 -25 10 -16 11 -169 0 -183 -5 -7
-5 -14 1 -18 6 -3 9 -28 7 -55 -2 -31 0 -50 7 -50 6 0 2 -7 -9 -16 -10 -8 -14
-13 -7 -10 8 5 11 -3 9 -21 -1 -16 2 -36 7 -47 6 -12 5 -16 -1 -12 -6 3 -8
-17 -6 -54 2 -44 0 -59 -9 -55 -7 4 -3 -1 7 -9 11 -9 15 -16 10 -16 -6 0 -9
-29 -8 -70 1 -49 -1 -68 -10 -64 -6 3 -2 -2 8 -10 11 -9 16 -16 10 -16 -5 0
-9 -40 -8 -92 1 -51 -3 -98 -8 -105 -5 -7 -5 -14 1 -18 6 -3 9 -28 7 -55 -2
-31 0 -50 7 -50 6 0 2 -7 -9 -16 -10 -8 -14 -13 -8 -10 14 7 16 -74 2 -91 -5
-7 -5 -14 1 -18 6 -3 9 -28 7 -55 -2 -31 0 -50 7 -50 6 0 2 -7 -9 -16 -10 -8
-14 -13 -7 -10 8 5 11 -3 9 -21 -1 -16 2 -36 7 -47 6 -12 5 -16 -1 -12 -6 3
-8 -17 -6 -54 2 -44 0 -59 -9 -55 -7 4 -3 -1 7 -9 11 -9 15 -16 10 -16 -6 0
-9 -29 -8 -70 1 -49 -1 -68 -10 -64 -6 3 -2 -2 8 -10 11 -9 16 -16 10 -16 -5
0 -9 -40 -8 -92 1 -51 -3 -98 -8 -105 -5 -7 -5 -14 1 -18 6 -3 9 -28 7 -55 -2
-31 0 -50 7 -50 6 0 2 -7 -9 -16 -10 -8 -14 -13 -8 -10 13 6 16 -82 2 -90 -5
-4 -5 -10 1 -18 6 -7 9 -25 7 -41 -1 -17 2 -36 8 -44 9 -12 8 -13 -3 -6 -11 6
-13 4 -8 -9 5 -11 3 -15 -5 -10 -7 5 -9 2 -5 -9 5 -14 3 -15 -18 -5 -18 8 -28
8 -39 -1 -11 -9 -16 -9 -22 0 -5 8 -3 9 6 4 8 -5 11 -4 7 3 -8 11 -25 11 -44
-1 -7 -5 -13 -6 -13 -2 0 3 -10 0 -22 -6 -22 -11 -22 -11 -8 6 14 17 14 17
-16 2 -27 -14 -34 -14 -51 -2 -11 8 -23 11 -27 8 -9 -10 -36 -13 -36 -4 0 4
-17 7 -37 7 -27 -1 -42 -7 -51 -21 -10 -15 -12 -16 -8 -3 3 10 1 20 -4 23 -6
4 -10 0 -10 -7 0 -10 -2 -10 -9 0 -11 19 -15 19 -33 4 -13 -10 -17 -10 -21 0
-4 11 -6 10 -6 0 -1 -8 -6 -10 -13 -5 -20 12 -39 12 -31 0 4 -6 0 -8 -10 -4
-9 3 -19 2 -23 -4 -3 -6 -10 -6 -17 -1 -7 5 -22 8 -35 6 -14 -3 -21 0 -17 6 3
5 1 10 -4 10 -6 0 -11 -5 -11 -11 0 -5 -4 -7 -10 -4 -5 3 -10 0 -10 -7 0 -10
-2 -10 -9 1 -5 8 -18 16 -28 17 -17 3 -17 2 1 -12 26 -19 7 -18 -20 1 -12 8
-24 11 -28 8 -10 -10 -36 -13 -36 -4 0 9 -52 7 -68 -3 -12 -7 -16 -1 -13 19 1
6 -8 -1 -19 -14 -11 -13 -20 -17 -20 -10 0 7 -3 9 -6 6 -4 -3 -16 -1 -28 5
-20 11 -20 10 -6 -8 14 -18 14 -18 -10 -3 -26 17 -70 16 -81 -2 -4 -7 -8 -5
-12 4 -6 16 -23 17 -44 4 -7 -5 -13 -6 -13 -2 0 3 -10 0 -22 -6 -22 -11 -22
-11 -8 6 14 17 14 17 -16 2 -27 -14 -34 -14 -51 -2 -11 8 -23 11 -27 8 -9 -10
-36 -13 -36 -4 0 4 -17 7 -37 7 -27 -1 -42 -7 -51 -21 -10 -15 -12 -16 -8 -3
3 10 1 20 -4 23 -6 4 -10 0 -10 -7 0 -8 -3 -9 -8 -3 -8 12 -22 13 -39 2 -6 -4
-14 -1 -16 5 -4 10 -6 10 -6 0 -1 -8 -6 -10 -13 -5 -20 12 -39 12 -31 0 4 -6
0 -8 -10 -4 -9 3 -19 2 -23 -4 -3 -6 -10 -6 -17 -1 -7 5 -22 8 -35 6 -14 -3
-21 0 -17 6 3 5 1 10 -4 10 -6 0 -11 -5 -11 -11 0 -5 -4 -7 -10 -4 -5 3 -10 0
-10 -7 0 -10 -2 -10 -9 1 -5 8 -18 16 -28 17 -17 3 -17 2 1 -12 26 -19 7 -18
-20 1 -12 8 -24 11 -28 8 -10 -10 -36 -13 -36 -4 0 9 -52 7 -68 -3 -12 -7 -16
-1 -13 19 1 6 -8 -1 -19 -14 -11 -13 -20 -17 -20 -10 0 7 -3 9 -6 6 -4 -3 -16
-1 -28 5 -20 11 -20 10 -6 -8 14 -18 14 -18 -10 -3 -26 17 -70 16 -81 -2 -4
-7 -8 -5 -12 4 -6 16 -23 17 -44 4 -7 -5 -13 -6 -13 -2 0 3 -10 0 -22 -6 -22
-11 -22 -11 -8 6 14 17 14 17 -16 2 -27 -14 -34 -14 -51 -2 -11 8 -23 11 -27
8 -10 -10 -36 -13 -36 -4 0 9 -51 7 -67 -2 -6 -4 -15 -3 -18 3 -5 8 -11 8 -20
0 -10 -8 -14 -7 -18 2 -4 10 -6 10 -6 1 -1 -7 -7 -13 -15 -13 -8 0 -17 -6 -20
-12 -3 -7 -3 -2 0 12 5 24 4 24 -10 6 -14 -18 -16 -168 -16 -1398 l0 -1378
3457 2 3456 3 2 23 c1 13 6 27 11 30 5 4 9 14 9 22 0 8 6 14 14 12 9 -2 12 4
8 18 -3 13 0 23 9 27 8 3 13 12 10 20 -3 8 -1 11 4 8 6 -3 10 1 10 10 0 9 5
13 10 10 6 -3 10 5 10 19 0 14 5 28 12 32 7 5 8 3 3 -7 -8 -12 -6 -12 8 0 9 7
14 18 11 23 -3 5 2 16 12 24 18 15 18 15 -1 10 -19 -6 -19 -5 -2 8 9 7 17 19
17 25 0 7 3 10 8 7 4 -2 12 7 19 20 8 18 8 23 0 18 -7 -3 -3 2 7 10 11 9 16
16 10 16 -5 0 0 7 10 15 11 8 16 15 12 15 -5 0 -2 8 5 17 9 11 10 14 2 9 -9
-5 -11 -2 -7 8 3 9 12 12 21 9 11 -4 14 -2 9 5 -4 7 -2 12 4 12 6 0 8 5 5 10
-4 6 -1 17 5 25 7 8 9 22 6 31 -5 14 -4 15 9 4 13 -10 15 -9 15 9 0 11 4 21 8
21 4 0 8 10 9 21 1 12 12 32 24 45 12 13 19 30 15 39 -5 13 -2 14 15 4 19 -10
20 -9 10 10 -9 17 -9 20 3 15 11 -4 14 0 11 15 -2 12 0 21 6 21 5 0 8 6 6 13
-1 6 6 11 16 9 19 -3 23 14 5 21 -10 4 -9 6 1 6 10 1 11 4 2 15 -9 11 -9 16 0
22 8 5 9 3 4 -6 -5 -8 -3 -11 4 -9 7 3 13 9 13 14 1 6 8 15 17 22 12 10 13 12
2 13 -8 0 -3 8 12 20 17 13 24 28 22 41 -3 15 0 19 10 15 9 -3 12 1 10 16 -5
24 20 52 37 42 9 -6 9 -3 -1 9 -12 15 -11 17 5 18 11 0 14 3 7 5 -13 6 12 60
36 80 9 7 11 18 7 29 -6 16 -4 16 11 4 11 -9 14 -10 9 -1 -4 6 -3 12 3 12 6 0
8 7 5 15 -4 8 -1 15 6 15 10 0 10 3 0 15 -11 13 -10 14 2 10 16 -6 32 20 23
36 -4 5 1 6 9 3 9 -3 16 -1 16 5 0 6 -5 11 -11 11 -5 0 -7 5 -4 10 4 6 11 7
17 4 7 -5 9 0 6 14 -4 14 -2 19 7 16 18 -7 28 26 13 45 -7 9 -9 13 -4 9 13
-11 48 12 42 28 -3 8 -1 14 5 14 6 0 8 7 5 16 -3 9 -2 12 5 9 6 -4 13 2 16 14
3 12 10 21 15 21 6 0 6 6 -1 14 -9 11 -9 16 0 22 8 5 10 3 4 -7 -4 -8 1 -5 12
6 11 11 16 23 11 26 -5 3 -2 9 8 13 16 6 16 8 4 16 -12 8 -10 10 8 10 12 0 22
5 22 11 0 5 -6 7 -12 4 -7 -4 -3 2 9 12 16 13 20 22 13 33 -10 16 -4 30 13 30
7 0 6 -4 -3 -11 -13 -9 -13 -10 0 -6 8 2 16 13 18 25 2 12 7 20 12 17 4 -3 7
6 6 19 -3 23 26 60 38 49 3 -4 6 -1 6 5 0 7 -6 12 -12 12 -7 0 -2 7 10 16 12
8 20 20 17 25 -4 5 -1 9 5 9 6 0 8 5 5 10 -3 6 1 10 10 10 13 0 14 4 4 21 -6
12 -7 19 -2 17 10 -6 44 28 36 36 -4 3 -2 6 4 6 5 0 9 13 8 30 -1 20 2 27 9
21 7 -6 16 -4 23 4 10 11 10 15 0 18 -9 4 -9 6 1 6 7 1 10 6 7 11 -3 6 0 10 7
10 9 0 9 3 -2 10 -13 8 -12 10 3 10 9 0 17 5 17 11 0 5 6 7 13 3 7 -5 6 0 -3
11 -9 11 -10 16 -2 11 11 -6 14 0 11 21 0 3 6 10 15 15 9 5 16 16 16 23 0 8 5
15 10 15 6 0 10 5 10 11 0 5 -6 7 -12 3 -7 -4 0 7 16 24 18 19 26 37 22 47 -3
9 -2 13 4 10 6 -3 10 -1 10 5 0 6 4 9 9 5 5 -3 12 -1 15 4 4 5 1 13 -5 17 -8
5 -9 3 -4 -6 6 -9 4 -11 -4 -5 -9 5 -7 12 8 26 12 11 21 29 21 40 0 15 5 19
16 15 8 -3 12 -2 9 4 -3 6 0 10 7 10 9 0 9 3 -2 10 -10 6 -11 10 -2 10 6 0 12
7 12 15 0 7 8 18 18 24 9 5 16 11 14 13 -6 6 17 58 26 58 5 0 15 18 22 40 8
24 19 40 29 40 14 0 14 2 1 10 -12 8 -12 10 2 15 9 4 19 14 22 22 6 14 4 14
-11 2 -17 -13 -17 -13 0 7 9 11 14 23 11 27 -3 3 8 13 26 22 29 15 31 19 29
63 -2 39 -6 48 -21 48 -17 0 -18 -2 -3 -12 14 -11 14 -12 0 -18 -9 -3 -14 -2
-12 2 3 4 -1 13 -9 19 -9 9 -15 10 -20 2 -4 -8 -9 -7 -15 2 -7 11 -9 11 -9 1
0 -8 -5 -10 -12 -5 -20 12 -39 12 -31 0 4 -6 0 -8 -10 -4 -9 3 -19 2 -23 -4
-3 -6 -10 -6 -17 -1 -7 5 -22 8 -35 6 -14 -3 -21 0 -17 6 3 5 1 10 -4 10 -6 0
-11 -5 -11 -11 0 -5 -4 -7 -10 -4 -5 3 -10 0 -10 -7 0 -10 -2 -10 -9 1 -5 8
-18 16 -28 17 -17 3 -17 2 1 -12 26 -19 7 -18 -20 1 -12 8 -24 11 -28 8 -10
-10 -36 -13 -36 -4 0 9 -52 7 -68 -3 -12 -7 -16 -1 -13 19 1 6 -8 -1 -19 -14
-11 -13 -20 -17 -20 -10 0 7 -3 9 -6 6 -4 -3 -16 -1 -28 5 -20 10 -20 10 -6
-7 14 -17 14 -18 -10 -4 -31 17 -42 18 -57 6 -8 -6 -13 -6 -13 0 0 15 -74 9
-88 -7 -7 -8 -12 -10 -11 -5 3 24 -2 27 -16 9 -10 -13 -13 -14 -10 -3 4 10 0
16 -9 16 -8 0 -13 -4 -10 -9 3 -4 0 -8 -5 -8 -6 0 -11 4 -11 8 0 4 -14 8 -30
7 -22 0 -29 -4 -25 -14 5 -12 3 -12 -11 0 -20 17 -54 22 -54 8 0 -5 5 -7 12
-3 7 4 8 3 4 -4 -4 -6 -13 -9 -21 -6 -8 4 -12 11 -8 18 4 6 -1 5 -10 -3 -9 -7
-17 -9 -17 -4 0 15 -74 9 -88 -7 -7 -8 -12 -10 -11 -5 3 24 -2 27 -16 9 -10
-13 -13 -14 -10 -3 4 10 0 16 -9 16 -8 0 -13 -4 -10 -9 3 -4 0 -8 -5 -8 -6 0
-11 4 -11 8 0 4 -14 8 -30 7 -22 0 -29 -4 -25 -14 5 -12 3 -12 -11 0 -20 17
-54 22 -54 8 0 -5 5 -7 12 -3 7 4 8 3 4 -4 -4 -6 -13 -9 -21 -6 -8 4 -12 11
-8 18 4 6 -1 5 -10 -3 -9 -7 -17 -9 -17 -4 0 15 -74 9 -88 -7 -7 -8 -12 -10
-11 -5 3 24 -2 27 -16 9 -10 -13 -13 -14 -10 -3 4 10 0 16 -9 16 -8 0 -13 -4
-10 -9 3 -4 0 -8 -5 -8 -6 0 -11 4 -11 8 0 4 -14 8 -30 7 -22 0 -29 -4 -25
-14 5 -12 3 -12 -11 0 -20 17 -54 22 -54 8 0 -5 5 -7 12 -3 7 4 8 3 4 -4 -4
-6 -13 -9 -21 -6 -8 4 -12 11 -8 18 4 6 -1 5 -10 -3 -9 -7 -17 -9 -17 -4 0 15
-74 9 -88 -7 -7 -8 -12 -10 -11 -5 3 24 -2 27 -16 9 -10 -13 -13 -14 -10 -3 4
10 0 16 -9 16 -8 0 -13 -4 -10 -9 3 -4 0 -8 -5 -8 -6 0 -11 4 -11 8 0 4 -14 8
-30 7 -22 0 -29 -4 -25 -14 5 -12 3 -12 -11 0 -20 17 -54 22 -54 8 0 -5 5 -7
12 -3 7 4 8 3 4 -4 -4 -6 -13 -9 -21 -6 -8 4 -12 11 -8 18 4 6 -1 5 -10 -3 -9
-7 -17 -9 -17 -4 0 15 -74 9 -88 -7 -7 -8 -12 -10 -11 -5 3 24 -2 27 -16 9
-10 -13 -13 -14 -10 -3 4 10 0 16 -9 16 -8 0 -13 -4 -10 -9 3 -4 0 -8 -5 -8
-6 0 -11 4 -11 8 0 4 -14 8 -30 7 -22 0 -29 -4 -25 -14 5 -12 3 -12 -11 0 -20
17 -54 22 -54 8 0 -5 5 -7 12 -3 7 4 8 3 4 -4 -4 -6 -13 -9 -21 -6 -8 4 -12
11 -8 18 4 6 -1 5 -10 -3 -9 -7 -17 -9 -17 -4 0 5 -19 8 -42 7 -24 -1 -43 -3
-43 -4 0 -1 -8 -3 -17 -5 -10 -2 -18 2 -18 8 0 8 -3 7 -9 -1 -6 -10 -10 -7
-13 12 -3 14 -2 23 3 20 12 -7 6 50 -6 58 -6 5 -4 8 4 8 11 0 9 5 -5 21 -13
14 -14 19 -4 17 7 -2 15 6 17 17 3 16 2 17 -6 5 -6 -8 -11 -10 -11 -4 0 5 6
16 12 22 10 10 10 17 0 33 -8 12 -10 19 -5 16 5 -3 8 15 6 41 -2 25 -9 50 -16
54 -7 4 -8 8 -2 8 6 0 17 -6 24 -12 8 -8 6 1 -4 21 -16 32 -16 34 1 27 17 -6
17 -6 -1 14 -14 15 -15 20 -4 20 10 1 8 6 -6 17 -20 15 -20 15 3 10 18 -4 21
-2 13 7 -6 7 -10 32 -9 57 2 31 -1 43 -11 41 -7 -1 -9 2 -6 8 4 6 13 9 21 6 8
-3 11 0 7 9 -3 8 -9 12 -14 9 -5 -3 -5 6 1 20 5 15 6 28 0 31 -6 3 -6 15 0 29
5 15 5 27 -3 35 -8 8 -8 11 2 11 11 0 11 3 0 17 -12 14 -12 16 0 9 9 -6 12 -5
9 5 -3 8 -12 13 -19 11 -8 -2 -3 6 9 18 17 16 21 25 13 33 -14 14 -14 54 -1
62 8 5 8 11 1 19 -6 7 -10 37 -9 67 1 30 -1 60 -6 67 -4 7 -2 12 5 12 8 0 7 5
-2 17 -12 14 -12 16 0 9 9 -6 12 -5 9 5 -3 8 -12 13 -19 11 -8 -2 -4 6 9 18
18 17 20 25 12 35 -7 9 -9 32 -6 62 5 34 3 44 -4 33 -6 -9 -10 -10 -10 -3 0 6
5 15 10 18 6 3 10 14 10 23 0 13 -2 14 -9 4 -7 -11 -9 -11 -14 2 -4 9 -1 15 5
13 7 -1 13 7 15 18 3 16 2 17 -6 5 -6 -8 -11 -10 -11 -4 0 5 5 15 11 21 15 15
3 47 -12 37 -8 -5 -9 -3 -5 5 5 7 14 10 22 7 8 -3 11 0 7 9 -3 8 -9 12 -14 9
-5 -3 -5 6 1 20 5 15 6 28 0 31 -6 3 -6 15 0 29 5 15 5 27 -3 35 -8 8 -8 11 2
11 11 0 11 3 0 17 -10 11 -10 14 -1 9 6 -4 12 -3 12 3 0 5 -8 15 -17 20 -16 9
-16 10 -2 11 20 0 33 27 17 36 -6 4 -8 21 -5 40 5 28 3 32 -11 26 -15 -5 -15
-3 1 13 15 14 16 20 5 26 -10 7 -10 9 0 9 6 0 12 8 12 18 0 13 -2 14 -9 4 -7
-11 -9 -11 -14 2 -4 9 -1 15 5 13 7 -1 13 7 15 18 3 16 2 17 -6 5 -7 -9 -11
-10 -11 -3 0 6 5 15 10 18 6 3 10 14 10 23 0 13 -2 14 -9 4 -7 -11 -9 -11 -14
2 -4 9 -1 15 5 13 7 -1 13 7 15 18 3 16 2 17 -6 5 -7 -9 -11 -10 -11 -3 0 6 5
15 10 18 6 3 10 14 10 23 0 13 -2 14 -9 4 -7 -11 -9 -11 -14 2 -4 9 -1 15 5
13 7 -1 13 7 15 18 3 16 2 17 -6 5 -6 -8 -11 -10 -11 -4 0 5 5 15 11 21 15 15
3 47 -12 37 -8 -5 -9 -3 -5 5 5 7 14 10 22 7 8 -3 11 0 7 9 -3 8 -9 12 -14 9
-5 -3 -5 6 1 20 5 15 6 28 0 31 -6 3 -6 15 0 29 5 15 5 27 -3 35 -8 8 -7 11 3
11 11 1 9 5 -5 17 -16 13 -17 15 -2 10 20 -7 21 -3 6 25 -8 15 -8 19 0 14 15
-10 14 7 -1 23 -8 9 -8 11 -2 8 8 -5 11 2 10 17 0 13 -6 22 -12 19 -6 -2 -19
3 -28 12 -9 9 -16 12 -16 6 0 -6 -10 -9 -22 -7 -13 2 -29 -2 -37 -8 -11 -8
-13 -8 -7 2 9 15 -6 16 -21 1 -8 -8 -13 -7 -18 2 -6 8 -4 10 5 4 9 -5 11 -4 6
4 -4 6 -13 8 -19 4 -20 -13 -91 -12 -106 0 -12 9 -13 9 -8 0 6 -9 -6 -12 -48
-10 -30 2 -55 -1 -55 -5 0 -4 -5 -8 -11 -8 -5 0 -7 5 -4 10 9 14 -9 12 -24 -2
-10 -11 -11 -9 -5 6 6 15 4 17 -7 10 -21 -13 -132 -14 -148 0 -11 8 -13 8 -8
0 4 -7 0 -15 -9 -18 -8 -3 -13 -2 -10 2 3 5 -34 7 -82 6 -55 -2 -92 2 -101 9
-11 9 -13 9 -8 1 9 -16 -93 -15 -112 0 -11 8 -13 8 -8 -1 6 -9 -6 -12 -48 -10
-30 2 -55 -1 -55 -5 0 -4 -5 -8 -11 -8 -5 0 -7 5 -4 10 9 14 -9 12 -24 -2 -10
-11 -11 -9 -5 6 6 15 4 17 -7 10 -21 -14 -90 -14 -82 0 4 6 -1 5 -10 -3 -9 -7
-23 -11 -30 -8 -8 3 -20 1 -28 -3 -9 -6 -21 -3 -33 8 -11 9 -17 12 -13 6 8
-14 -104 -15 -122 0 -11 8 -13 8 -8 -1 5 -8 -2 -11 -21 -11 -16 1 -35 -3 -42
-7 -8 -5 -11 -4 -6 3 4 8 -6 9 -34 6 -25 -3 -40 -1 -40 6 0 6 -7 4 -16 -5 -12
-11 -20 -13 -29 -5 -10 8 -15 8 -21 -1 -5 -9 -11 -7 -21 6 -7 11 -13 14 -13 8
0 -6 -18 -10 -42 -9 -24 1 -48 -2 -55 -6 -6 -5 -14 -5 -17 0 -3 5 -26 7 -53 6
-26 -2 -54 2 -62 9 -12 9 -13 9 -8 0 6 -9 -6 -12 -48 -10 -30 2 -55 -1 -55 -5
0 -4 -5 -8 -11 -8 -5 0 -7 5 -4 10 9 14 -9 12 -24 -2 -10 -11 -11 -9 -5 6 6
15 4 17 -7 10 -21 -14 -90 -14 -82 0 4 6 -1 5 -10 -3 -9 -7 -23 -11 -30 -8 -8
3 -20 1 -28 -3 -9 -6 -21 -3 -33 8 -11 9 -17 12 -13 6 8 -14 -104 -15 -122 0
-11 8 -13 8 -8 -1 5 -8 -2 -11 -21 -11 -16 1 -35 -3 -42 -7 -8 -5 -11 -4 -6 3
4 8 -6 9 -34 6 -25 -3 -40 -1 -40 6 0 6 -7 4 -16 -5 -12 -11 -20 -13 -29 -5
-10 8 -15 8 -21 -1 -5 -9 -11 -7 -21 6 -7 11 -13 14 -13 8 0 -6 -18 -10 -42
-9 -24 1 -48 -2 -55 -6 -6 -5 -14 -5 -17 0 -3 5 -26 7 -53 6 -26 -2 -54 2 -62
9 -12 9 -13 9 -8 0 6 -9 -6 -12 -48 -10 -30 2 -55 -1 -55 -5 0 -4 -5 -8 -11
-8 -5 0 -7 5 -4 10 9 14 -9 12 -24 -2 -10 -11 -11 -9 -5 6 6 15 4 17 -7 10
-21 -14 -90 -14 -82 0 4 6 -1 5 -10 -3 -9 -7 -23 -11 -30 -8 -8 3 -20 1 -28
-3 -9 -6 -21 -3 -33 8 -11 9 -17 12 -13 6 8 -14 -104 -15 -122 0 -11 8 -13 8
-8 -1 5 -8 -2 -11 -21 -11 -16 1 -35 -3 -42 -7 -8 -5 -11 -4 -6 3 4 8 -4 10
-26 7 -18 -2 -39 1 -47 8 -10 8 -13 8 -8 1z m-2409 -2292 c3 -5 -1 -9 -9 -9
-8 0 -12 4 -9 9 3 4 7 8 9 8 2 0 6 -4 9 -8z m306 2 c0 -8 -19 -13 -24 -6 -3 5
1 9 9 9 8 0 15 -2 15 -3z m174 -2 c3 -5 -1 -9 -9 -9 -8 0 -12 4 -9 9 3 4 7 8
9 8 2 0 6 -4 9 -8z m480 0 c3 -5 -1 -9 -9 -9 -8 0 -12 4 -9 9 3 4 7 8 9 8 2 0
6 -4 9 -8z m306 2 c0 -8 -19 -13 -24 -6 -3 5 1 9 9 9 8 0 15 -2 15 -3z m174
-2 c3 -5 -1 -9 -9 -9 -8 0 -12 4 -9 9 3 4 7 8 9 8 2 0 6 -4 9 -8z m480 0 c3
-5 -1 -9 -9 -9 -8 0 -12 4 -9 9 3 4 7 8 9 8 2 0 6 -4 9 -8z m4080 0 c3 -5 -1
-9 -9 -9 -8 0 -12 4 -9 9 3 4 7 8 9 8 2 0 6 -4 9 -8z m160 0 c3 -5 -1 -9 -9
-9 -8 0 -12 4 -9 9 3 4 7 8 9 8 2 0 6 -4 9 -8z m160 0 c3 -5 -1 -9 -9 -9 -8 0
-12 4 -9 9 3 4 7 8 9 8 2 0 6 -4 9 -8z m160 0 c3 -5 -1 -9 -9 -9 -8 0 -12 4
-9 9 3 4 7 8 9 8 2 0 6 -4 9 -8z m160 0 c3 -5 -1 -9 -9 -9 -8 0 -12 4 -9 9 3
4 7 8 9 8 2 0 6 -4 9 -8z m160 0 c3 -5 -1 -9 -9 -9 -8 0 -12 4 -9 9 3 4 7 8 9
8 2 0 6 -4 9 -8z m160 0 c3 -5 -1 -9 -9 -9 -8 0 -12 4 -9 9 3 4 7 8 9 8 2 0 6
-4 9 -8z m160 0 c3 -5 -1 -9 -9 -9 -8 0 -12 4 -9 9 3 4 7 8 9 8 2 0 6 -4 9 -8z
m160 0 c3 -5 -1 -9 -9 -9 -8 0 -12 4 -9 9 3 4 7 8 9 8 2 0 6 -4 9 -8z m160 0
c3 -5 -1 -9 -9 -9 -8 0 -12 4 -9 9 3 4 7 8 9 8 2 0 6 -4 9 -8z m160 0 c3 -5
-1 -9 -9 -9 -8 0 -12 4 -9 9 3 4 7 8 9 8 2 0 6 -4 9 -8z m66 2 c0 -8 -19 -13
-24 -6 -3 5 1 9 9 9 8 0 15 -2 15 -3z m174 -2 c3 -5 -1 -9 -9 -9 -8 0 -12 4
-9 9 3 4 7 8 9 8 2 0 6 -4 9 -8z m391 -80 c-3 -3 -11 0 -18 7 -9 10 -8 11 6 5
10 -3 15 -9 12 -12z m-995 -1776 c0 -2 -8 -10 -17 -17 -16 -13 -17 -12 -4 4
13 16 21 21 21 13z"/>
<path d="M5280 5751 c0 -7 -5 -9 -12 -5 -7 5 -8 3 -3 -5 5 -9 10 -10 18 -2 6
6 8 14 4 18 -4 3 -7 1 -7 -6z"/>
<path d="M5881 5744 c0 -11 3 -14 6 -6 3 7 2 16 -1 19 -3 4 -6 -2 -5 -13z"/>
<path d="M6240 5751 c0 -7 -5 -9 -12 -5 -7 5 -8 3 -3 -5 5 -9 10 -10 18 -2 6
6 8 14 4 18 -4 3 -7 1 -7 -6z"/>
<path d="M6841 5744 c0 -11 3 -14 6 -6 3 7 2 16 -1 19 -3 4 -6 -2 -5 -13z"/>
<path d="M7200 5751 c0 -7 -5 -9 -12 -5 -7 5 -8 3 -3 -5 5 -9 10 -10 18 -2 6
6 8 14 4 18 -4 3 -7 1 -7 -6z"/>
<path d="M13241 5744 c0 -11 3 -14 6 -6 3 7 2 16 -1 19 -3 4 -6 -2 -5 -13z"/>
<path d="M13380 5620 c-9 -6 -10 -10 -3 -10 6 0 15 5 18 10 8 12 4 12 -15 0z"/>
<path d="M12245 3590 c-3 -6 1 -7 9 -4 18 7 21 14 7 14 -6 0 -13 -4 -16 -10z"/>
</g>
</svg>
